<svg width="52" height="19" viewBox="0 0 52 19" fill="none" xmlns="http://www.w3.org/2000/svg">
<path d="M0.816 18C0.576 18 0.456 17.912 0.456 17.736C0.456 17.592 0.56 17.496 0.768 17.448L1.32 17.352C1.656 17.288 1.872 17.2 1.968 17.088C2.08 16.976 2.136 16.752 2.136 16.416V2.304C2.136 1.968 2.08 1.744 1.968 1.632C1.872 1.52 1.656 1.432 1.32 1.368L0.768 1.272C0.56 1.224 0.456 1.128 0.456 0.983999C0.456 0.807999 0.576 0.719999 0.816 0.719999H5.832C6.776 0.719999 7.608 0.927999 8.328 1.344C9.048 1.744 9.608 2.304 10.008 3.024C10.408 3.744 10.608 4.576 10.608 5.52C10.608 6.432 10.408 7.24 10.008 7.944C9.608 8.648 9.056 9.2 8.352 9.6C7.648 9.984 6.832 10.176 5.904 10.176H4.176C3.952 10.176 3.84 10.288 3.84 10.512V16.32C3.84 16.656 3.904 16.888 4.032 17.016C4.16 17.128 4.448 17.224 4.896 17.304L5.784 17.448C5.96 17.48 6.048 17.568 6.048 17.712C6.048 17.904 5.928 18 5.688 18H0.816ZM3.84 8.256C3.84 9.136 4.376 9.576 5.448 9.576C6.488 9.576 7.304 9.208 7.896 8.472C8.504 7.736 8.808 6.728 8.808 5.448C8.808 4.136 8.504 3.12 7.896 2.4C7.288 1.68 6.424 1.32 5.304 1.32C4.328 1.32 3.84 1.64 3.84 2.28V8.256ZM13.9157 3.48C13.5797 3.48 13.2917 3.36 13.0517 3.12C12.8277 2.88 12.7157 2.576 12.7157 2.208C12.7157 1.84 12.8277 1.544 13.0517 1.32C13.2917 1.08 13.5797 0.959999 13.9157 0.959999C14.2517 0.959999 14.5317 1.08 14.7557 1.32C14.9797 1.544 15.0917 1.84 15.0917 2.208C15.0917 2.576 14.9797 2.88 14.7557 3.12C14.5317 3.36 14.2517 3.48 13.9157 3.48ZM11.8997 18C11.6597 18 11.5397 17.912 11.5397 17.736C11.5397 17.592 11.6437 17.496 11.8517 17.448L12.1397 17.4C12.5397 17.336 12.7957 17.24 12.9077 17.112C13.0197 16.968 13.0757 16.728 13.0757 16.392V8.328C13.0757 8.04 13.0277 7.848 12.9317 7.752C12.8517 7.64 12.6997 7.568 12.4757 7.536L11.9717 7.464C11.7637 7.448 11.6597 7.36 11.6597 7.2C11.6597 7.072 11.7877 6.984 12.0437 6.936C12.5397 6.856 12.9397 6.728 13.2437 6.552C13.5477 6.376 13.8437 6.16 14.1317 5.904C14.2757 5.76 14.3957 5.688 14.4917 5.688C14.6357 5.688 14.7077 5.784 14.7077 5.976V16.392C14.7077 16.728 14.7557 16.968 14.8517 17.112C14.9477 17.256 15.1317 17.344 15.4037 17.376L16.0037 17.448C16.1797 17.48 16.2677 17.568 16.2677 17.712C16.2677 17.904 16.1477 18 15.9077 18H11.8997ZM21.9714 18C21.7474 18 21.6354 17.92 21.6354 17.76C21.6354 17.6 21.7394 17.496 21.9474 17.448L22.3074 17.376C22.7874 17.264 22.9154 17 22.6914 16.584L20.9874 13.224C20.9234 13.112 20.8434 13.056 20.7474 13.056C20.6674 13.04 20.5954 13.096 20.5314 13.224L18.9714 16.152C18.6194 16.824 18.6754 17.208 19.1394 17.304L19.7634 17.448C19.9714 17.496 20.0754 17.6 20.0754 17.76C20.0754 17.92 19.9634 18 19.7394 18H16.6674C16.4434 18 16.3314 17.912 16.3314 17.736C16.3314 17.56 16.4274 17.448 16.6194 17.4L16.9074 17.328C17.2114 17.248 17.4674 17.128 17.6754 16.968C17.8834 16.792 18.1474 16.408 18.4674 15.816L20.2434 12.552C20.3714 12.312 20.3874 12.08 20.2914 11.856L18.0114 7.368C17.8354 7 17.6834 6.752 17.5554 6.624C17.4434 6.496 17.3074 6.416 17.1474 6.384L16.7874 6.312C16.5794 6.264 16.4754 6.16 16.4754 6C16.4754 5.84 16.5874 5.76 16.8114 5.76H20.3634C20.5874 5.76 20.6994 5.84 20.6994 6C20.6994 6.16 20.5954 6.264 20.3874 6.312L20.0274 6.384C19.5474 6.496 19.4194 6.76 19.6434 7.176L21.2754 10.344C21.3394 10.456 21.4114 10.512 21.4914 10.512C21.5714 10.512 21.6434 10.456 21.7074 10.344L23.1474 7.608C23.4994 6.936 23.4434 6.552 22.9794 6.456L22.3554 6.312C22.1474 6.264 22.0434 6.16 22.0434 6C22.0434 5.84 22.1554 5.76 22.3794 5.76H25.4514C25.6754 5.76 25.7874 5.848 25.7874 6.024C25.7874 6.2 25.6914 6.312 25.4994 6.36L25.2114 6.432C24.9074 6.496 24.6514 6.616 24.4434 6.792C24.2354 6.952 23.9714 7.336 23.6514 7.944L21.9954 11.016C21.8514 11.256 21.8434 11.504 21.9714 11.76L24.3234 16.392C24.5154 16.776 24.6674 17.032 24.7794 17.16C24.8914 17.272 25.0274 17.344 25.1874 17.376L25.5474 17.448C25.7554 17.496 25.8594 17.6 25.8594 17.76C25.8594 17.92 25.7474 18 25.5234 18H21.9714ZM29.997 18.216C29.181 18.216 28.445 17.944 27.789 17.4C27.149 16.84 26.637 16.08 26.253 15.12C25.869 14.16 25.677 13.088 25.677 11.904C25.677 10.72 25.869 9.656 26.253 8.712C26.637 7.768 27.157 7.016 27.813 6.456C28.469 5.896 29.197 5.616 29.997 5.616C30.813 5.616 31.541 5.896 32.181 6.456C32.837 7.016 33.357 7.768 33.741 8.712C34.125 9.656 34.317 10.72 34.317 11.904C34.317 13.088 34.125 14.16 33.741 15.12C33.373 16.08 32.861 16.84 32.205 17.4C31.549 17.944 30.813 18.216 29.997 18.216ZM29.997 17.616C31.661 17.616 32.493 15.712 32.493 11.904C32.493 8.112 31.661 6.216 29.997 6.216C28.333 6.216 27.501 8.112 27.501 11.904C27.501 15.712 28.333 17.616 29.997 17.616ZM38.6179 7.296C39.2739 6.176 40.0659 5.616 40.9939 5.616C41.5219 5.616 41.9139 5.776 42.1699 6.096C42.4259 6.4 42.5539 6.744 42.5539 7.128C42.5539 7.432 42.4739 7.68 42.3139 7.872C42.1699 8.064 41.9379 8.16 41.6179 8.16C41.3619 8.16 41.1699 8.104 41.0419 7.992C40.9299 7.864 40.8339 7.72 40.7539 7.56C40.6899 7.4 40.6099 7.264 40.5139 7.152C40.4179 7.024 40.2579 6.96 40.0339 6.96C39.7459 6.96 39.4739 7.136 39.2179 7.488C38.9619 7.824 38.7459 8.28 38.5699 8.856C38.4099 9.432 38.3299 10.088 38.3299 10.824V16.392C38.3299 16.728 38.3779 16.968 38.4739 17.112C38.5859 17.256 38.8099 17.344 39.1459 17.376L39.7939 17.448C39.9699 17.48 40.0579 17.568 40.0579 17.712C40.0579 17.904 39.9379 18 39.6979 18H35.6419C35.4019 18 35.2819 17.912 35.2819 17.736C35.2819 17.592 35.3859 17.496 35.5939 17.448L35.8819 17.4C36.2179 17.336 36.4339 17.24 36.5299 17.112C36.6419 16.968 36.6979 16.728 36.6979 16.392V8.328C36.6979 8.04 36.6499 7.848 36.5539 7.752C36.4739 7.64 36.3219 7.568 36.0979 7.536L35.5939 7.464C35.3859 7.448 35.2819 7.36 35.2819 7.2C35.2819 7.072 35.4099 6.984 35.6659 6.936C36.1619 6.856 36.5379 6.728 36.7939 6.552C37.0659 6.376 37.3459 6.16 37.6339 5.904C37.7779 5.76 37.8979 5.688 37.9939 5.688C38.1379 5.688 38.2099 5.784 38.2099 5.976V7.272C38.2099 7.384 38.2579 7.456 38.3539 7.488C38.4499 7.504 38.5379 7.44 38.6179 7.296ZM45.0206 18.216C44.3486 18.216 43.7966 18.008 43.3646 17.592C42.9326 17.16 42.7166 16.592 42.7166 15.888C42.7166 15.2 42.9326 14.552 43.3646 13.944C43.7966 13.32 44.3886 12.76 45.1406 12.264C45.8926 11.768 46.7486 11.368 47.7086 11.064C47.9166 11 48.0206 10.864 48.0206 10.656V8.472C48.0206 7.704 47.9006 7.16 47.6606 6.84C47.4206 6.504 47.0926 6.336 46.6766 6.336C46.2766 6.336 45.9086 6.52 45.5726 6.888C45.2526 7.24 45.0206 7.84 44.8766 8.688C44.7966 9.2 44.6206 9.576 44.3486 9.816C44.0926 10.04 43.8286 10.152 43.5566 10.152C43.1086 10.152 42.8846 9.928 42.8846 9.48C42.8846 9.016 43.0126 8.56 43.2686 8.112C43.5406 7.648 43.8926 7.232 44.3246 6.864C44.7566 6.48 45.2286 6.176 45.7406 5.952C46.2526 5.728 46.7646 5.616 47.2766 5.616C48.8606 5.616 49.6526 6.536 49.6526 8.376V15.72C49.6526 16.392 49.8206 16.728 50.1566 16.728C50.3646 16.728 50.5566 16.592 50.7326 16.32C50.9086 16.032 50.9966 15.552 50.9966 14.88C50.9966 14.624 51.1006 14.496 51.3086 14.496C51.5006 14.496 51.5966 14.632 51.5966 14.904C51.5966 16.072 51.3886 16.92 50.9726 17.448C50.5726 17.96 50.1166 18.216 49.6046 18.216C49.2206 18.216 48.9166 18.064 48.6926 17.76C48.4686 17.44 48.3166 17.064 48.2366 16.632C48.2206 16.472 48.1486 16.392 48.0206 16.392C47.9086 16.376 47.7966 16.448 47.6846 16.608C47.3006 17.136 46.9086 17.536 46.5086 17.808C46.1086 18.08 45.6126 18.216 45.0206 18.216ZM45.6686 17.112C46.0846 17.112 46.4686 16.968 46.8206 16.68C47.1726 16.376 47.4606 15.976 47.6846 15.48C47.9086 14.984 48.0206 14.424 48.0206 13.8V12.048C48.0206 11.744 47.8526 11.656 47.5166 11.784C46.5406 12.136 45.7806 12.624 45.2366 13.248C44.7086 13.856 44.4446 14.592 44.4446 15.456C44.4446 16.56 44.8526 17.112 45.6686 17.112Z" fill="white"/>
</svg>
