<svg width="115" height="64" viewBox="0 0 115 64" fill="none" xmlns="http://www.w3.org/2000/svg">
<g filter="url(#filter0_d_91_39)">
<path d="M15.9 53.44C14.1 53.44 13.2 52.62 13.2 50.98C13.2 49.78 13.78 48.2 14.94 46.24C12.78 46 11.02 45.02 9.66 43.3C8.14 41.42 7.38 38.94 7.38 35.86C7.38 35.3 7.4 34.7 7.44 34.06C7.52 33.42 7.6 32.76 7.68 32.08C6.44 30.48 5.82 28.2 5.82 25.24C5.82 22.68 6.62 20 8.22 17.2C5.74 15.56 4.5 13.36 4.5 10.6C4.5 8 5.5 5.64 7.5 3.52C9.46 1.44 11.86 0.359999 14.7 0.279998C15.22 0.279998 15.48 0.439998 15.48 0.759999C15.48 0.959999 15.34 1.06 15.06 1.06C12.54 1.06 10.36 2.04 8.52 4C6.68 5.88 5.76 8 5.76 10.36C5.76 12.72 6.84 14.58 9 15.94C9.92 14.46 11 13.06 12.24 11.74C13.52 10.42 14.92 9.14 16.44 7.9C19.56 5.46 22.86 3.6 26.34 2.32C28.62 1.52 30.78 1.12 32.82 1.12C34.98 1.12 36.72 1.54 38.04 2.38C39.4 3.22 40.08 4.36 40.08 5.8C40.08 8 38.52 10.44 35.4 13.12C33.28 14.96 30.64 16.48 27.48 17.68C24.12 18.96 21.02 19.6 18.18 19.6C16.34 19.6 14.74 19.46 13.38 19.18C11.5 22.42 10.08 25.64 9.12 28.84C10.08 31.76 12.2 33.22 15.48 33.22C18.32 33.22 21.42 31.96 24.78 29.44C23.7 27.04 21.96 25.84 19.56 25.84C19 25.84 18.46 25.9 17.94 26.02C17.66 26.06 17.22 26.38 16.62 26.98C16.02 27.58 15.72 28.16 15.72 28.72C15.72 28.96 15.64 29.08 15.48 29.08C15.32 29.12 15.24 29.02 15.24 28.78C15.24 28.14 15.58 27.42 16.26 26.62C16.86 25.98 17.4 25.62 17.88 25.54C18.48 25.38 19.1 25.3 19.74 25.3C22.3 25.3 24.2 26.52 25.44 28.96C29.64 25.68 33.18 21.24 36.06 15.64C36.5 14.84 36.82 14.64 37.02 15.04H37.26C37.58 15.04 37.86 15.12 38.1 15.28C38.34 15.4 38.44 15.56 38.4 15.76C38.08 18.4 37.6 21.06 36.96 23.74C36.32 26.42 35.5 29.16 34.5 31.96C35.14 31.88 35.8 31.84 36.48 31.84C37.08 31.84 37.38 31.96 37.38 32.2C37.38 32.48 37.14 32.62 36.66 32.62C35.86 32.62 35.04 32.68 34.2 32.8C33.04 36.2 31.78 39.16 30.42 41.68C28.5 45.32 26.04 48.24 23.04 50.44C20.32 52.44 17.94 53.44 15.9 53.44ZM17.94 17.92C23.46 17.92 28.66 16.2 33.54 12.76C36.94 10.32 38.64 8.04 38.64 5.92C38.64 4.72 38.08 3.76 36.96 3.04C35.84 2.32 34.36 1.96 32.52 1.96C30.68 1.96 28.72 2.36 26.64 3.16C23.48 4.4 20.42 6.28 17.46 8.8C14.66 11.24 12.44 13.92 10.8 16.84C11.64 17.16 12.56 17.4 13.56 17.56C16.12 13.48 19.1 10.22 22.5 7.78C26.3 5.06 30.22 3.7 34.26 3.7C34.42 3.7 34.5 3.78 34.5 3.94C34.5 4.1 34.42 4.18 34.26 4.18C30.42 4.18 26.68 5.5 23.04 8.14C19.76 10.5 16.84 13.68 14.28 17.68C15.4 17.84 16.62 17.92 17.94 17.92ZM26.46 34.6C28.18 33.64 30.02 32.9 31.98 32.38C32.7 30.06 33.36 27.72 33.96 25.36C34.6 22.96 35.18 20.5 35.7 17.98C32.86 22.62 29.54 26.48 25.74 29.56C26.34 31.08 26.58 32.76 26.46 34.6ZM8.76 27.7C9.72 24.74 11.02 21.84 12.66 19C12.22 18.92 11.78 18.82 11.34 18.7C10.9 18.54 10.48 18.38 10.08 18.22C9.04 20.54 8.52 22.7 8.52 24.7C8.52 25.82 8.6 26.82 8.76 27.7ZM15.24 45.76C16.64 43.48 18.2 41.46 19.92 39.7C21.64 37.98 23.52 36.48 25.56 35.2C25.6 35 25.62 34.78 25.62 34.54C25.62 34.34 25.62 34.14 25.62 33.94C25.62 32.54 25.42 31.26 25.02 30.1C21.02 33.22 17.34 34.78 13.98 34.78C11.54 34.78 9.62 34.08 8.22 32.68C8.06 33.8 7.98 34.86 7.98 35.86C7.98 38.98 8.7 41.4 10.14 43.12C11.46 44.76 13.16 45.64 15.24 45.76ZM16.5 52.84C18.06 52.84 19.96 51.86 22.2 49.9C24.68 47.78 26.68 45.18 28.2 42.1C29.36 39.78 30.5 36.88 31.62 33.4C29.82 33.96 28.06 34.78 26.34 35.86L26.28 36.16C26 37.64 25.56 38.98 24.96 40.18C24.36 41.42 23.58 42.5 22.62 43.42C20.86 45.1 18.86 46.04 16.62 46.24C15.46 48.36 14.88 49.98 14.88 51.1C14.88 52.26 15.42 52.84 16.5 52.84ZM16.92 45.7C18.8 45.42 20.5 44.52 22.02 43C23.7 41.32 24.8 39.24 25.32 36.76V36.52C21.92 38.88 19.12 41.94 16.92 45.7ZM40.6359 34.24C39.3559 34.04 38.7159 33.14 38.7159 31.54C38.7159 29.1 39.8359 26.4 42.0759 23.44C44.3959 20.32 46.7959 18.76 49.2759 18.76C50.1159 18.76 50.8759 18.96 51.5559 19.36C52.2759 19.72 52.6359 20.3 52.6359 21.1C52.6359 22.02 52.2559 22.54 51.4959 22.66C51.7359 22.26 51.8559 21.86 51.8559 21.46C51.8559 20.58 51.3559 20.14 50.3559 20.14C49.3959 20.14 48.3559 20.62 47.2359 21.58C44.4759 23.94 42.4559 26.68 41.1759 29.8C40.7759 30.76 40.5759 31.56 40.5759 32.2C40.5759 32.72 40.7559 32.98 41.1159 32.98C41.5159 32.98 42.2159 32.52 43.2159 31.6C43.8959 30.96 45.3759 29.02 47.6559 25.78C48.2559 24.94 48.7359 24.52 49.0959 24.52C49.4159 24.52 49.5759 25.36 49.5759 27.04V30.4C49.9359 32.16 50.5559 33.04 51.4359 33.04C51.9159 33.04 52.4959 32.88 53.1759 32.56C53.8959 32.2 54.5959 31.64 55.2759 30.88L56.3559 29.74C56.4759 29.7 56.6159 29.78 56.7759 29.98C56.6159 30.42 55.9159 31.16 54.6759 32.2C53.1159 33.52 51.6759 34.18 50.3559 34.18C49.9959 34.18 49.6359 34.12 49.2759 34C48.2359 33.64 47.5559 32.52 47.2359 30.64C47.1559 30.12 47.0759 29.68 46.9959 29.32C46.9559 28.96 46.9359 28.66 46.9359 28.42C46.9359 28.3 46.9359 28.2 46.9359 28.12C46.6959 28.6 45.9959 29.6 44.8359 31.12C43.1159 33.36 41.7159 34.4 40.6359 34.24ZM58.1292 34.3C56.1292 34.3 55.1292 32.9 55.1292 30.1C55.1292 28.94 55.3092 27.48 55.6692 25.72H55.4892C55.2092 25.72 55.0692 25.62 55.0692 25.42C55.0692 25.1 55.4292 24.54 56.1492 23.74C58.5092 13.78 61.6692 7.14 65.6292 3.82C66.5092 3.1 67.4292 2.74 68.3892 2.74C69.7092 2.74 70.3692 3.42 70.3692 4.78C70.3692 7.74 68.9492 11.1 66.1092 14.86C64.5092 16.86 61.9492 19.62 58.4292 23.14C57.5092 26.26 57.0492 28.74 57.0492 30.58C57.0492 32.34 57.6492 33.22 58.8492 33.22C59.7692 33.22 60.8692 32.86 62.1492 32.14C63.4292 31.42 64.4292 30.6 65.1492 29.68C65.4292 29.32 65.6492 29.14 65.8092 29.14C65.8892 29.14 65.9292 29.22 65.9292 29.38C65.9292 29.82 65.8092 30.18 65.5692 30.46C64.8492 31.3 63.7492 32.12 62.2692 32.92C60.5492 33.84 59.1692 34.3 58.1292 34.3ZM58.6092 21.82C60.7692 19.82 62.9492 17.3 65.1492 14.26C67.9492 10.38 69.3892 7.38 69.4692 5.26V5.08C69.4692 4.12 69.1892 3.64 68.6292 3.64C67.9492 3.64 67.1692 4.2 66.2892 5.32C65.7292 6 65.0892 6.98 64.3692 8.26C63.6492 9.5 62.8492 11.08 61.9692 13C61.1692 14.76 60.4892 16.38 59.9292 17.86C59.3692 19.3 58.9292 20.62 58.6092 21.82ZM68.0902 34.3C66.0902 34.3 65.0902 32.9 65.0902 30.1C65.0902 28.94 65.2702 27.48 65.6302 25.72H65.4502C65.1702 25.72 65.0302 25.62 65.0302 25.42C65.0302 25.1 65.3902 24.54 66.1102 23.74C68.4702 13.78 71.6302 7.14 75.5902 3.82C76.4702 3.1 77.3902 2.74 78.3502 2.74C79.6702 2.74 80.3302 3.42 80.3302 4.78C80.3302 7.74 78.9102 11.1 76.0702 14.86C74.4702 16.86 71.9102 19.62 68.3902 23.14C67.4702 26.26 67.0102 28.74 67.0102 30.58C67.0102 32.34 67.6102 33.22 68.8102 33.22C69.7302 33.22 70.8302 32.86 72.1102 32.14C73.3902 31.42 74.3902 30.6 75.1102 29.68C75.3902 29.32 75.6102 29.14 75.7702 29.14C75.8502 29.14 75.8902 29.22 75.8902 29.38C75.8902 29.82 75.7702 30.18 75.5302 30.46C74.8102 31.3 73.7102 32.12 72.2302 32.92C70.5102 33.84 69.1302 34.3 68.0902 34.3ZM68.5702 21.82C70.7302 19.82 72.9102 17.3 75.1102 14.26C77.9102 10.38 79.3502 7.38 79.4302 5.26V5.08C79.4302 4.12 79.1502 3.64 78.5902 3.64C77.9102 3.64 77.1302 4.2 76.2502 5.32C75.6902 6 75.0502 6.98 74.3302 8.26C73.6102 9.5 72.8102 11.08 71.9302 13C71.1302 14.76 70.4502 16.38 69.8902 17.86C69.3302 19.3 68.8902 20.62 68.5702 21.82ZM78.5911 34.72C77.3911 34.72 76.3911 34.36 75.5911 33.64C74.7911 32.88 74.3911 31.6 74.3911 29.8C74.3911 29.32 74.4311 28.8 74.5111 28.24C74.8711 26.2 75.7111 24.26 77.0311 22.42C78.6711 20.18 80.3711 19.06 82.1311 19.06C83.0511 19.06 83.9111 19.32 84.7111 19.84C85.5111 20.32 85.9111 21.04 85.9111 22C85.9111 23.08 85.4711 24.2 84.5911 25.36H85.7911C85.9911 25.36 86.1111 25.38 86.1511 25.42C86.1511 25.66 85.4111 25.92 83.9311 26.2C83.0511 27.2 82.3911 27.7 81.9511 27.7C81.8711 27.7 81.8311 27.66 81.8311 27.58C81.8311 27.62 82.1311 27.22 82.7311 26.38C82.2111 26.38 81.5111 26.42 80.6311 26.5C79.7911 26.54 78.7711 26.64 77.5711 26.8C77.1311 28 76.9111 29.12 76.9111 30.16C76.9111 31.48 77.2711 32.44 77.9911 33.04C78.4311 33.44 78.9711 33.64 79.6111 33.64C79.7311 33.64 79.8511 33.64 79.9711 33.64C80.0911 33.64 80.2111 33.62 80.3311 33.58C82.8911 33.14 85.3711 31.66 87.7711 29.14C87.9711 28.86 88.1311 28.82 88.2511 29.02C88.2911 29.06 88.3111 29.12 88.3111 29.2C88.3111 29.36 88.1911 29.56 87.9511 29.8C87.1111 30.88 85.7911 31.94 83.9911 32.98C81.9911 34.14 80.1911 34.72 78.5911 34.72ZM78.1711 25.54C78.7311 25.5 79.4511 25.48 80.3311 25.48L83.3311 25.42C83.7711 24.54 84.0511 23.84 84.1711 23.32C84.2911 22.8 84.3511 22.38 84.3511 22.06C84.3511 21.22 84.0311 20.8 83.3911 20.8C82.5911 20.8 81.7111 21.28 80.7511 22.24C80.1911 22.8 79.6911 23.36 79.2511 23.92C78.8111 24.44 78.4511 24.98 78.1711 25.54ZM88.2877 34.12C87.8877 34.12 87.7077 33.92 87.7477 33.52C87.8677 33 88.0077 32.22 88.1677 31.18C88.3277 30.1 88.5077 28.72 88.7077 27.04C88.7877 26.28 88.8677 25.6 88.9477 25C89.0277 24.36 89.0877 23.78 89.1277 23.26L89.3077 21.04C89.3477 20.6 89.6077 20.22 90.0877 19.9C90.6077 19.58 91.1277 19.42 91.6477 19.42C92.3677 19.42 92.6277 19.72 92.4277 20.32L91.5877 23.44C91.3877 24 91.2077 24.58 91.0477 25.18C90.8877 25.78 90.7077 26.4 90.5077 27.04C91.5077 25.32 92.7077 23.7 94.1077 22.18C95.6677 20.58 96.8277 19.78 97.5877 19.78C98.5477 19.78 99.2277 20.32 99.6277 21.4C100.068 22.44 100.088 22.96 99.6877 22.96C99.6077 22.96 99.4677 22.8 99.2677 22.48C98.9077 21.76 98.4077 21.4 97.7677 21.4C96.1677 21.4 94.1877 23.18 91.8277 26.74C90.5077 28.74 89.5077 31.04 88.8277 33.64C88.7477 33.96 88.5677 34.12 88.2877 34.12ZM87.57 55.18C84.09 55.18 81.87 53.7 80.91 50.74C80.67 50.1 80.55 49.46 80.55 48.82C80.55 46.42 81.79 44.34 84.27 42.58C87.79 40.18 94.77 37.62 105.21 34.9C105.61 34.06 106.05 32.3 106.53 29.62L107.61 24.04C105.97 27.04 104.23 29.6 102.39 31.72C102.23 32.16 101.91 32.68 101.43 33.28C100.99 33.84 100.59 34.12 100.23 34.12C99.95 34.12 99.81 33.9 99.81 33.46C99.81 33.18 99.83 32.94 99.87 32.74C100.43 29.94 100.71 27.92 100.71 26.68C100.71 24.88 100.29 23.98 99.45 23.98C99.13 23.98 98.69 24.14 98.13 24.46C97.93 24.58 97.79 24.64 97.71 24.64C97.55 24.64 97.47 24.58 97.47 24.46C97.47 24.18 97.65 23.94 98.01 23.74C99.01 22.98 99.93 22.6 100.77 22.6C101.13 22.6 101.45 22.68 101.73 22.84C102.49 23.24 102.87 24.42 102.87 26.38C102.87 27.78 102.73 29.02 102.45 30.1C103.09 29.3 103.85 28.32 104.73 27.16C105.61 25.96 106.63 24.58 107.79 23.02C107.95 21.7 108.49 21.04 109.41 21.04C109.97 21.04 110.25 21.2 110.25 21.52C110.25 22.64 109.89 24.78 109.17 27.94C108.45 31.22 107.83 33.38 107.31 34.42C108.55 34.14 109.23 33.66 109.35 32.98C109.43 32.54 109.59 32.32 109.83 32.32C109.99 32.32 110.07 32.48 110.07 32.8C110.07 34 108.99 34.9 106.83 35.5C105.63 38.86 104.01 42.04 101.97 45.04C99.65 48.44 97.27 50.98 94.83 52.66C92.39 54.34 89.97 55.18 87.57 55.18ZM87.69 53.44C92.21 53.44 95.95 51.48 98.91 47.56C100.23 45.84 102.23 41.94 104.91 35.86C102.15 36.5 98.65 37.68 94.41 39.4C89.97 41.2 86.71 42.82 84.63 44.26C82.39 45.78 81.27 47.38 81.27 49.06C81.27 49.42 81.33 49.78 81.45 50.14C82.17 52.34 84.25 53.44 87.69 53.44Z" fill="#FF4A74"/>
</g>
<defs>
<filter id="filter0_d_91_39" x="0.5" y="0.280029" width="113.75" height="62.8999" filterUnits="userSpaceOnUse" color-interpolation-filters="sRGB">
<feFlood flood-opacity="0" result="BackgroundImageFix"/>
<feColorMatrix in="SourceAlpha" type="matrix" values="0 0 0 0 0 0 0 0 0 0 0 0 0 0 0 0 0 0 127 0" result="hardAlpha"/>
<feOffset dy="4"/>
<feGaussianBlur stdDeviation="2"/>
<feComposite in2="hardAlpha" operator="out"/>
<feColorMatrix type="matrix" values="0 0 0 0 0 0 0 0 0 0 0 0 0 0 0 0 0 0 0.25 0"/>
<feBlend mode="normal" in2="BackgroundImageFix" result="effect1_dropShadow_91_39"/>
<feBlend mode="normal" in="SourceGraphic" in2="effect1_dropShadow_91_39" result="shape"/>
</filter>
</defs>
</svg>
